mtllib DomeFacade.mtl
# vertices
v -500 -26 49.245701678572594
v -500 0.005415025683760177 99.46664103788738
v -500 108.39608011796655 99.46664103787771
v -500 108.41116635948855 99.45618368982956
v -500 108.41116635948859 -99.43736342928605
v -500 -0.0019708962943099095 -99.4523775493312
v -500 -26 -49.245701678579415
v -470.94181742605133 217.9550871359013 -93.67615180229947
v -499.9927964967437 108.43832222128185 -99.45475082394114
v -470.9418174260491 217.95508713591198 93.67615180231142
v -480.7855931932292 -26 -145.8446203375599
v -423.8746607749631 108.43282998753575 -283.22399348424335
v -423.8689164941249 108.41116635851067 -283.23786469238553
v -423.87953251184797 0 -283.2272486746642
v -443.09534556880766 -26 -236.8388120275357
v -443.0953455688005 -26 236.8388120275453
v -423.8795325113002 0 283.2272486752293
v -423.87953251129437 108.41116635949686 283.2272486752338
v -480.782901915292 -26 145.85817983915337
v -399.2451948211495 217.95508713590453 266.76711047140765
v -399.2451948211431 217.95508713589305 -266.7671104714202
v -414.51420822715954 317.85430147017917 -82.45200247096699
v -414.51420822716904 317.85430147016837 82.45200247098666
v -351.4081776052441 317.85430147017536 234.80343746595167
v -351.4081776052224 317.8543014701822 -234.80343746596927
v -388.3747496721438 -26 318.7320315143926
v -388.3747496721693 -26 -318.7320315143545
v -333.9965399439455 402.3030301440738 -66.4360424568709
v -333.9965399439438 402.30303014407485 66.4360424568704
v -283.2267214725353 108.41467494354995 -423.87874349795345
v -283.22808651565725 0 -423.8786946708992
v -318.73142099205785 -26 -388.3753601944878
v -318.73142099206325 -26 388.37536019448464
v -283.2280865156374 0 423.8786946709152
v -283.22896837553486 108.41116635943727 423.87781281101485
v -266.76711047142015 217.95508713586972 -399.2451948211494
v -266.76711047141595 217.95508713590507 399.2451948211408
v -283.14859442366196 402.30303014406604 -189.1938421507626
v -283.14859442366554 402.3030301440674 189.19384215075502
v -234.80343746596523 317.8543014701784 351.4081776052285
v -234.8034374659397 317.8543014701954 -351.40817760522947
v -234.06820678721095 466.39342000570286 -46.55906114035717
v -234.06820678721124 466.3934200057027 46.559061140364854
v -236.83822533492443 -26 -443.0942521080553
v -236.83822533491673 -26 443.0942521080587
v -189.1938421507656 402.30303014406536 283.1485944236591
v -189.19384215075473 402.30303014406917 -283.14859442366316
v -198.43344413743563 466.39342000570446 132.58898842138535
v -198.43344413743137 466.3934200057048 -132.5889884213818
v -99.45493657238413 108.41116635949572 500
v -145.84462033755165 -26 480.78528040322857
v -99.45618368983331 0 500
v -99.45608875649958 108.41296554801572 -500
v -99.45618368981383 0 -500
v -145.84462033754394 -26 -480.78528040323135
v -132.5889884213875 466.3934200057012 -198.433444137435
v -132.58898842135523 466.3934200057373 198.43344413739052
v -93.67615180229548 217.95508713588876 470.9418174260598
v -93.67615180230015 217.95508713586105 -470.9418174260642
v -82.45200247097236 317.854301470185 -414.5142082271534
v -82.45200247096633 317.85430147017604 414.51420822715977
v -120.53668025533298 506.40077055539103 -23.97623642565555
v -120.53668025533561 506.40077055539007 23.976236425652058
v -102.18606335419942 506.40077055539257 -68.27854462627143
v -102.18606335420246 506.40077055539206 68.27854462626588
v -66.4360424568591 402.3030301440757 333.9965399439423
v -66.43604245685933 402.3030301440739 -333.9965399439453
v -68.2782741018342 506.4007705553938 102.18633387865631
v -68.2805634612208 506.40077055539655 -102.18404451923169
v -46.55971007511971 466.39132776398134 234.07188961474662
v -46.55906114045587 466.3934200056997 -234.06862745093898
v -49.24570167858474 -26 -500
v -49.24570167857746 -26 500
v -23.976236425723002 506.4007705553968 -120.53571428567889
v -23.97587434133611 506.40077055539473 120.5357142856968
v 0 520 -0
v 46.55906114033917 466.3934200057374 -234.06862745088029
v 23.976236425661796 506.40077055539257 -120.53571428571573
v 66.43604245686586 402.3030301440759 333.9965399439422
v 46.55957582730076 466.39176059460414 234.07121475755372
v 99.45618368984093 108.41116635949564 500
v 49.24545063671975 -26 500
v 99.45618368982711 0 500
v 82.45200247097142 317.8543014701761 414.5142082271597
v 93.67615180229386 217.95508713588885 470.94181742605974
v 500 -26 49.24570167858276
v 480.78528040322885 -26 145.84464964693217
v 443.0937317601252 -26 236.84015506117083
v 388.37536019448805 -26 318.7311178247733
v 318.73209169054337 -26 388.37536019448936
v 236.8388120275439 -26 443.09425210805585
v 145.8446203375467 -26 480.78528040323
v 49.245450636720435 -26 -500
v 145.84462033753607 -26 -480.78528040323306
v 236.83881202754375 -26 -443.09425210805637
v 318.72736457304364 -26 -388.3785187275512
v 388.375360194488 -26 -318.7311178247727
v 443.0946291560102 -26 -236.83881202754293
v 480.78528040322897 -26 -145.84462033754437
v 500 -26 -49.2457016785816
v 66.43604245686979 402.3030301440739 -333.9965399439453
v 82.45200247097037 317.854301470185 -414.5142082271534
v 99.45618368982286 0 -500
v 99.45618368981846 108.4111663595058 -500
v 93.67615180232306 217.95508713586128 -470.9418174260641
v 23.976236425665974 506.40077055539473 120.53571428569317
v 68.27854462632908 506.4007705553925 102.18606335417564
v 68.28056346129807 506.40077055539155 -102.18404451921813
v 102.18606335417971 506.4007705553927 -68.27854462632625
v 102.1860633541747 506.40077055539297 68.27854462632837
v 120.53668025532173 506.400770555393 -23.97623642566979
v 120.53668025532144 506.400770555393 23.976236425668667
v 132.5889884213749 466.39342000570696 198.43344413742895
v 132.5889884213865 466.39342000570116 -198.43344413744285
v 189.19384215079543 402.30303014405774 -283.14859442365656
v 189.1938421507324 402.30303014407446 283.14859442366253
v 198.43344413745245 466.3934200056993 132.58898842138288
v 198.43344413744575 466.3934200057013 -132.58898842138223
v 234.80343746595884 317.85430147017973 -351.4081776052299
v 234.80343746597757 317.8543014701661 351.4081776052333
v 234.06820678720334 466.3934200057059 46.55906114036243
v 234.06820678721846 466.3934200057003 -46.55906114035591
v 266.7671104714249 217.95508713591644 399.2451948211311
v 266.767110471435 217.95508713586656 -399.2451948211537
v 283.22676761303694 108.41436787828776 -423.87881255079645
v 283.2272486752567 108.41116635948083 423.87953251129136
v 283.14859442365525 402.3030301440747 -189.1938421507581
v 283.14859442369584 402.3030301440633 189.19384215073237
v 283.225198378369 -0.001149159639812325 -423.8803817720669
v 283.2362972195971 108.3970369872516 423.87578448150583
v 283.2306062821297 0.0018818866258065725 423.87814174498436
v 333.99653994394293 402.3030301440769 -66.43604245686106
v 333.9965399439519 402.3030301440703 66.43604245686257
v 351.40817760523146 317.85430147018144 -234.80343746596083
v 351.40817760523197 317.8543014701779 234.80343746596284
v 399.2451948211504 217.95508713588728 -266.7671104714216
v 399.24519482114874 217.95508713590786 266.7671104714085
v 414.5142082271555 317.85430147018496 -82.45200247096827
v 414.51420822716193 317.85430147018604 82.45200247094104
v 423.87957018044364 108.41099885233999 283.22727384499524
v 423.8772571195651 108.4022790354594 283.23285807146715
v 423.87953251126277 108.41116635954003 -283.22724867528405
v 423.88083243856863 0 -283.2259487590802
v 423.8796146137087 0 283.2271665735369
v 470.9418174260503 217.95508713591474 93.67615180229494
v 470.94181742605156 217.95508713590897 -93.67615180229471
v 500 108.41116635949315 -99.45618368983108
v 500 108.41116635949064 99.45618368983995
v 500 0 -99.45618368983074
v 500 0 99.45618368983

# texture coordinates
vt -0.38473204 -0.203125
vt -0.77708316 4.2304888e-05
vt -0.77708316 0.8468444
vt -0.77700144 0.8469622
vt 0.7768544 0.8469622
vt 0.7769717 -1.5397627e-05
vt 0.38473204 -0.203125
vt 0.73184496 1.7027742
vt 0.77699023 0.8471744
vt -0.73184496 1.7027742
vt 1.1394111 -0.203125
vt 2.2126875 0.8471315
vt 2.2127957 0.8469622
vt 2.2127128 -0
vt 1.8503032 -0.203125
vt -1.8503032 -0.203125
vt -2.2127128 -0
vt -2.2127128 0.8469622
vt -1.1395171 -0.203125
vt -2.0841181 1.7027742
vt 2.0841181 1.7027742
vt 0.6441563 2.4832368
vt -0.6441563 2.4832368
vt -1.8344018 2.4832368
vt 1.8344018 2.4832368
vt -2.490094 -0.203125
vt 2.490094 -0.203125
vt 0.5190316 3.1429925
vt -0.5190316 3.1429925
vt 3.3115528 0.84698963
vt 3.3115523 -0
vt 3.0341825 -0.203125
vt -3.0341825 -0.203125
vt -3.3115523 -0
vt -3.3115454 0.8469622
vt -2.2127087 0.84698963
vt -3.311476 0.8469622
vt -3.3115208 0.8471315
vt -3.1191032 1.7027742
vt -2.2127264 0.8469622
vt -3.311559 0.8469622
vt -2.2120984 1.4780769
vt -2.7453763 1.8344018
vt -3.2383924 0.6441563
vt -2.609348 0.5190316
vt -2.609348 -0.5190316
vt -3.2383924 -0.6441563
vt -2.7453763 -1.8344018
vt -2.2120984 -1.4780769
vt -2.7453763 2.4832368
vt -1.8286579 0.36374268
vt -1.8286579 -0.36374268
vt -2.4900892 -0.203125
vt -2.2127194 -0
vt -1.8502986 -0.203125
vt -1.4780769 -2.2120984
vt -1.8344018 -2.7453763
vt -1.8344018 2.7453763
vt -1.4780769 2.2120984
vt -1.5502613 -1.0358515
vt -1.5502613 1.0358515
vt -0.77699167 0.8469622
vt -1.1394111 -0.203125
vt -0.77700144 -0
vt -0.77700067 0.8469763
vt -1.0358515 1.5502613
vt -1.0358515 -1.5502613
vt -0.9416928 0.18731435
vt -0.9416928 -0.18731435
vt -0.79832864 0.5334261
vt -0.79832864 -0.5334261
vt -0.5190316 -2.609348
vt -0.6441563 -3.2383924
vt -0.6441563 3.2383924
vt -0.5190316 2.609348
vt -0.533424 -0.7983307
vt -0.5334419 0.79831284
vt -0.36374775 -1.8286866
vt -0.36374268 1.8286612
vt -0.18731435 0.94168526
vt -0.18731152 -0.94168526
vt 0 -0
vt 0.36374268 1.8286612
vt 0.18731435 0.94168526
vt 0.5190316 -2.609348
vt 0.36374667 -1.8286813
vt 0.77700144 0.8469622
vt 0.38473007 -0.203125
vt 0.77700144 -0
vt 3.90625 -0.38473204
vt 3.756135 -1.1394113
vt 3.4616697 -1.8503137
vt 3.0341825 -2.4900868
vt 2.4900944 -3.0341825
vt 1.8503032 -3.4616737
vt 1.1394111 -3.756135
vt 0.38473007 -3.90625
vt -0.38473204 -3.90625
vt -1.1394111 -3.756135
vt -1.8502986 -3.4616737
vt -2.4900892 -3.0341825
vt -3.0341778 -2.490094
vt -3.4616823 -1.8503032
vt -3.7561164 -1.1395171
vt -3.90625 -0.38473204
vt -3.90625 0.38473204
vt -3.7561374 1.1394111
vt -3.4616823 1.8503032
vt -3.0341778 2.490094
vt -2.4900892 3.0341825
vt -1.8502986 3.4616737
vt -1.1394111 3.756135
vt -0.38473204 3.90625
vt 0.38473007 3.90625
vt 1.1394111 3.756135
vt 1.8503032 3.4616737
vt 2.4900575 3.034207
vt 3.0341825 2.4900868
vt 3.4616768 1.8503032
vt 3.756135 1.1394111
vt 3.90625 0.38473204
vt 0.5190316 2.609348
vt 0.18731435 -0.94168526
vt 0.5334261 -0.79832864
vt 0.5334419 0.79831284
vt 0.79832864 0.5334261
vt 0.79832864 -0.5334261
vt 0.9416928 0.18731435
vt 0.9416928 -0.18731435
vt 1.0358515 -1.5502613
vt 1.0358515 1.5502613
vt 1.4780769 2.2120984
vt 1.4780769 -2.2120984
vt 1.5502613 -1.0358515
vt 1.5502613 1.0358515
vt 1.8344018 2.7453763
vt 0.6441563 3.2383924
vt 0.6441563 -3.2383924
vt 1.8344018 -2.7453763
vt 1.8286579 -0.36374268
vt 1.8286579 0.36374268
vt 2.2127092 0.84698725
vt 2.2127128 0.8469622
vt 2.2120984 1.4780769
vt 2.2120984 -1.4780769
vt 2.2126968 -8.97781e-06
vt 2.2127836 0.8468518
vt 2.2127392 1.4702239e-05
vt 2.609348 0.5190316
vt 2.609348 -0.5190316
vt 2.7453763 1.8344018
vt 2.7453763 -1.8344018
vt 2.4900944 -0.203125
vt 2.4900575 -0.203125
vt 3.1191032 1.7027742
vt 2.7453763 2.4832368
vt 3.2383924 0.6441563
vt 3.2383924 -0.6441563
vt 3.3115592 0.8469609
vt 3.311541 0.84689283
vt 3.3115532 0.84698725
vt 3.311559 0.8469622
vt 3.311569 -0
vt -2.2127566 0.84689283
vt -3.3115296 0.8468518
vt -3.311548 1.4702239e-05
vt -2.4900868 -0.203125
vt -2.2127123 -0
vt 2.4900868 -0.203125
vt 2.2127028 -0
vt -1.8503137 -0.203125
vt -2.212713 0.8469609
vt -1.1394113 -0.203125

# normals
vn -1 0 -0
vn -0.9665713774783365 0.25639768376416994 4.034447204924074e-17
vn -0.9238823335618338 5.299683739091868e-05 -0.3826766662911076
vn -0.9238718328656157 3.4189034699298574e-14 0.3827020204251969
vn -0.9178102187213029 -0.3525563294447376 0.1825607761245764
vn -0.9178101748267358 -0.3525564195538349 -0.1825608227848929
vn -0.8929955123634865 0.2563976837641167 0.36989085235927416
vn -0.8929955123634812 0.25639768376414934 -0.36989085235926433
vn -0.8707015585429346 0.49181174848808235 -1.850703936956074e-14
vn -0.8044233488634871 0.4918117484880858 0.33320306098885755
vn -0.804423348863483 0.4918117484880976 -0.3332030609888503
vn -0.7780778675642226 -0.35254958068228315 0.5199073236332207
vn -0.778077867562748 -0.3525495806869924 -0.519907323632234
vn -0.7237512954694293 0.6900609120261216 3.722957786529213e-15
vn -0.7071067811866587 1.149351507834982e-14 -0.7071067811864363
vn -0.7071067811866035 9.273095856839857e-15 0.7071067811864915
vn -0.6834691755161931 0.25639768376179417 -0.6834691755162059
vn -0.6834691755157596 0.25639768376413774 0.6834691755157603
vn -0.6686590085127445 0.6900609120261075 -0.2769676299289324
vn -0.6686590085127279 0.6900609120261353 0.2769676299289038
vn -0.6156789764353997 0.49181174848809567 0.6156789764353992
vn -0.6156789764353665 0.4918117484881057 -0.6156789764354241
vn -0.5398676916195396 0.8417498889488432 -2.8829084602310994e-16
vn -0.5198927170632631 -0.35256639073548823 -0.7780800105826705
vn -0.5198927170632461 -0.3525663907355166 0.7780800105826691
vn -0.5117694489189865 0.6900609120261211 0.5117694489189785
vn -0.5117694489189702 0.6900609120261254 -0.511769448918989
vn -0.4987727105514127 0.84174988894884 0.2065984212519847
vn -0.49877271055140004 0.8417498889488448 -0.20659842125199493
vn -0.3826855384153345 4.402256967561328e-06 0.9238786601434117
vn -0.38268553841533365 4.402257238729893e-06 -0.9238786601434121
vn -0.38174410568771233 0.8417498889488321 -0.3817441056877205
vn -0.3817441056877056 0.8417498889488385 0.3817441056877129
vn -0.3698908523592817 0.25639768376413263 0.8929955123634786
vn -0.369890852359276 0.25639768376412175 -0.8929955123634842
vn -0.33320306098883057 0.4918117484881236 -0.8044233488634751
vn -0.3332030609888305 0.49181174848810866 0.8044233488634843
vn -0.33235763853225925 0.9431534340229377 5.679758583695119e-16
vn -0.30705841971372183 0.9431534340229446 -0.12718776188627115
vn -0.3070584197137177 0.9431534340229478 0.12718776188625852
vn -0.2769676299289118 0.6900609120261216 0.6686590085127386
vn -0.2769676299288999 0.6900609120261274 -0.6686590085127375
vn -0.23501233998534124 0.9431534340229715 0.2350123399851395
vn -0.23501233998525412 0.9431534340229594 -0.23501233998527515
vn -0.20660038142413856 0.841750092620263 0.4987715548917955
vn -0.20659899057126016 0.8417489347885359 -0.4987740850097382
vn -0.18256332622687982 -0.3525612541317264 -0.9178078197542459
vn -0.18256332622687296 -0.35256125413185857 0.9178078197541965
vn -0.12718786071971552 0.9431545230992352 -0.3070550335737825
vn -0.12718092085119348 0.9431527907945482 0.30706322897393257
vn -0.1121110648959027 0.9936956823534591 1.3095080049444527e-14
vn -0.10357711822538516 0.9936956823534585 0.0429030471204437
vn -0.10357711822538015 0.9936956823534592 -0.042903047120443585
vn -0.07927449423397497 0.9936956823534586 0.07927449423390688
vn -0.0792744942339674 0.9936956823534585 -0.07927449423391465
vn -0.04290382824701308 0.9936955795115453 -0.10357778130933877
vn -0.042900659339574446 0.9936956365202209 0.10357854695303968
vn -1.7256269590564715e-13 0.9431547064467012 -0.3323540276684439
vn -3.291001791144512e-16 0.8417488561728106 0.5398693018979364
vn 0 0 1
vn 0 0.49181174848810033 0.8707015585429244
vn 0 0.6900609120261271 0.7237512954694242
vn 0 -1 0
vn 0 0.8417488561728207 -0.5398693018979205
vn -0 0.6900609120261207 -0.7237512954694302
vn 0 0 -1
vn 3.889602810518178e-17 0.2563976837641944 -0.9665713774783299
vn 7.460880032459786e-17 0.49181174848811127 -0.8707015585429181
vn 1.0708454461994798e-16 0.25639768376416 0.9665713774783391
vn 1.049004122583999e-15 0.9936955822613712 -0.11211195205790617
vn 8.505588160462519e-15 0.9936955822613714 0.11211195205790449
vn 2.520941619744416e-14 0.9431527594972801 0.33235955267250217
vn 0.042901276263306434 0.9936956361147196 0.10357829532070117
vn 0.04290382824702269 0.993695579511543 -0.10357778130935676
vn 0.07927449423392992 0.9936956823534596 -0.07927449423393915
vn 0.0792744942339318 0.9936956823534596 0.07927449423393818
vn 0.10357711822536227 0.99369568235346 -0.04290304712046716
vn 0.10357711822536309 0.9936956823534597 0.04290304712046913
vn 0.11211106489589547 0.9936956823534598 -1.691806058912952e-16
vn 0.1271824660180984 0.9431530483234418 0.3070617979751874
vn 0.12718786071971663 0.9431545230992389 -0.3070550335737703
vn 0.1825628131101749 -0.35256202594228453 -0.917807625340284
vn 0.18256281311018105 -0.3525620259423024 0.9178076253402759
vn 0.2065989905712636 0.8417489347885417 -0.49877408500972675
vn 0.20660038142411868 0.8417500926202592 0.49877155489180985
vn 0.23501233998529944 0.9431534340229415 0.2350123399853014
vn 0.2350123399853028 0.943153434022941 -0.23501233998529988
vn 0.27696762992893054 0.6900609120261151 -0.6686590085127375
vn 0.2769676299289326 0.6900609120261142 0.6686590085127376
vn 0.30705841971371456 0.9431534340229466 0.12718776188627479
vn 0.3070584197137289 0.9431534340229427 -0.1271877618862682
vn 0.3323576385322456 0.9431534340229427 -5.357151832599593e-15
vn 0.33320306098882574 0.49181174848810666 0.8044233488634877
vn 0.33320306098884467 0.4918117484880795 -0.8044233488634962
vn 0.3698908523592582 0.25639768376417976 -0.892995512363475
vn 0.3698908523592867 0.2563976837641885 0.8929955123634608
vn 0.38174410568770567 0.8417498889488442 -0.3817441056877004
vn 0.38174410568771305 0.8417498889488191 0.38174410568774875
vn 0.38268343236507535 3.9584683601145325e-15 -0.9238795325112927
vn 0.38268343236509106 2.2730473043022932e-14 0.9238795325112862
vn 0.49877271055141237 0.8417498889488392 -0.20659842125198757
vn 0.49877271055142064 0.841749888948848 0.20659842125193253
vn 0.5117694489189683 0.690060912026123 -0.5117694489189941
vn 0.511769448918969 0.6900609120261296 0.5117694489189843
vn 0.5198946526186771 -0.35255538200217795 0.778083705522615
vn 0.5198946526186902 -0.35255538200219316 -0.7780837055225994
vn 0.5398676916195353 0.8417498889488458 -2.3996261440243417e-14
vn 0.6156789764353963 0.49181174848809617 -0.6156789764354023
vn 0.6156789764354046 0.4918117484881181 0.6156789764353762
vn 0.6686590085127283 0.690060912026131 -0.2769676299289133
vn 0.6686590085127535 0.6900609120261046 0.27696762992891794
vn 0.6834691755157469 0.25639768376416955 0.683469175515761
vn 0.6834691755157589 0.25639768376414346 -0.6834691755157587
vn 0.7071037622030799 1.297667433455968e-14 -0.7071098001571257
vn 0.7071117249276525 -2.1747312143949614e-05 0.7071018370764528
vn 0.7237512954694181 0.6900609120261335 -5.467371371280445e-14
vn 0.7780780713594609 -0.35255896794454605 -0.5199006530015309
vn 0.7780780713594966 -0.35255896794442654 0.5199006530015586
vn 0.8044233488634597 0.491811748488156 0.33320306098881997
vn 0.8044233488635015 0.49181174848808373 -0.33320306098882607
vn 0.8707015585429144 0.49181174848811776 2.4179326760741572e-14
vn 0.8929955123634722 0.25639768376417243 -0.36989085235926966
vn 0.8929955123634729 0.2563976837641581 0.3698908523592781
vn 0.9178078197541868 -0.3525612541318778 -0.1825633262268841
vn 0.9178078636498561 -0.35256116402197746 0.18256327956616872
vn 0.9238796179965446 1.8587952391312435e-15 0.38268322598535576
vn 0.9238808859703936 -6.830229501738228e-06 -0.3826801647484599
vn 0.9665713774783464 0.25639768376413213 2.475794671613367e-14
vn 1 0 -0

o entity0_brush0
usemtl kenney_prototype_textures/purple/texture_13
f  1/1/1  2/2/1  3/3/1  4/4/1  5/5/1  6/6/1  7/7/1
usemtl kenney_prototype_textures/purple/texture_13
f  8/8/2  9/9/2  5/5/2  4/4/2  10/10/2
usemtl kenney_prototype_textures/purple/texture_13
f  11/11/3  6/6/3  5/5/3  9/9/3  12/12/3  13/13/3  14/14/3  15/15/3
usemtl kenney_prototype_textures/purple/texture_13
f  16/16/4  17/17/4  18/18/4  3/3/4  2/2/4  19/19/4
usemtl kenney_prototype_textures/purple/texture_13
f  19/19/5  2/2/5  1/1/5
usemtl kenney_prototype_textures/purple/texture_13
f  7/7/6  6/6/6  11/11/6
usemtl kenney_prototype_textures/purple/texture_13
f  20/20/7  10/10/7  4/4/7  3/3/7  18/18/7
usemtl kenney_prototype_textures/purple/texture_13
f  12/12/8  9/9/8  8/8/8  21/21/8
usemtl kenney_prototype_textures/purple/texture_13
f  22/22/9  8/8/9  10/10/9  23/23/9
usemtl kenney_prototype_textures/purple/texture_13
f  24/24/10  23/23/10  10/10/10  20/20/10
usemtl kenney_prototype_textures/purple/texture_13
f  21/21/11  8/8/11  22/22/11  25/25/11
usemtl kenney_prototype_textures/purple/texture_13
f  26/26/12  17/17/12  16/16/12
usemtl kenney_prototype_textures/purple/texture_13
f  15/15/13  14/14/13  27/27/13
usemtl kenney_prototype_textures/purple/texture_13
f  28/28/14  22/22/14  23/23/14  29/29/14
usemtl kenney_prototype_textures/purple/texture_13
f  27/27/15  14/14/15  13/13/15  30/30/15  31/31/15  32/32/15
usemtl kenney_prototype_textures/purple/texture_13
f  33/33/16  34/34/16  35/35/16  18/18/16  17/17/16  26/26/16
usemtl kenney_prototype_textures/purple/texture_13
f  30/36/17  13/37/17  12/38/17  21/39/17  36/20/17
usemtl kenney_prototype_textures/purple/texture_13
f  35/40/18  37/20/18  20/39/18  18/41/18
usemtl kenney_prototype_textures/purple/texture_13
f  38/42/19  25/43/19  22/44/19  28/45/19
usemtl kenney_prototype_textures/purple/texture_13
f  29/46/20  23/47/20  24/48/20  39/49/20
usemtl kenney_prototype_textures/purple/texture_13
f  40/50/21  24/24/21  20/20/21  37/39/21
usemtl kenney_prototype_textures/purple/texture_13
f  36/20/22  21/39/22  25/50/22  41/24/22
usemtl kenney_prototype_textures/purple/texture_13
f  42/51/23  28/45/23  29/46/23  43/52/23
usemtl kenney_prototype_textures/purple/texture_13
f  32/53/24  31/54/24  44/55/24
usemtl kenney_prototype_textures/purple/texture_13
f  45/55/25  34/54/25  33/53/25
usemtl kenney_prototype_textures/purple/texture_13
f  46/56/26  39/49/26  24/48/26  40/57/26
usemtl kenney_prototype_textures/purple/texture_13
f  41/58/27  25/43/27  38/42/27  47/59/27
usemtl kenney_prototype_textures/purple/texture_13
f  43/52/28  29/46/28  39/49/28  48/60/28
usemtl kenney_prototype_textures/purple/texture_13
f  49/61/29  38/42/29  28/45/29  42/51/29
usemtl kenney_prototype_textures/purple/texture_13
f  50/62/30  35/40/30  34/54/30  45/55/30  51/63/30  52/64/30
usemtl kenney_prototype_textures/purple/texture_13
f  53/65/31  54/64/31  55/63/31  44/55/31  31/54/31  30/36/31
usemtl kenney_prototype_textures/purple/texture_13
f  56/66/32  47/59/32  38/42/32  49/61/32
usemtl kenney_prototype_textures/purple/texture_13
f  57/67/33  48/60/33  39/49/33  46/56/33
usemtl kenney_prototype_textures/purple/texture_13
f  58/10/34  37/20/34  35/40/34  50/62/34
usemtl kenney_prototype_textures/purple/texture_13
f  53/65/35  30/36/35  36/20/35  59/10/35
usemtl kenney_prototype_textures/purple/texture_13
f  59/10/36  36/20/36  41/24/36  60/23/36
usemtl kenney_prototype_textures/purple/texture_13
f  61/23/37  40/24/37  37/20/37  58/10/37
usemtl kenney_prototype_textures/purple/texture_13
f  62/68/38  42/51/38  43/52/38  63/69/38
usemtl kenney_prototype_textures/purple/texture_13
f  64/70/39  49/61/39  42/51/39  62/68/39
usemtl kenney_prototype_textures/purple/texture_13
f  63/69/40  43/52/40  48/60/40  65/71/40
usemtl kenney_prototype_textures/purple/texture_13
f  66/72/41  46/56/41  40/57/41  61/73/41
usemtl kenney_prototype_textures/purple/texture_13
f  60/74/42  41/58/42  47/59/42  67/75/42
usemtl kenney_prototype_textures/purple/texture_13
f  65/71/43  48/60/43  57/67/43  68/76/43
usemtl kenney_prototype_textures/purple/texture_13
f  69/77/44  56/66/44  49/61/44  64/70/44
usemtl kenney_prototype_textures/purple/texture_13
f  70/78/45  57/67/45  46/56/45  66/72/45
usemtl kenney_prototype_textures/purple/texture_13
f  67/75/46  47/59/46  56/66/46  71/79/46
usemtl kenney_prototype_textures/purple/texture_13
f  72/1/47  55/63/47  54/64/47
usemtl kenney_prototype_textures/purple/texture_13
f  73/1/48  52/64/48  51/63/48
usemtl kenney_prototype_textures/purple/texture_13
f  56/66/49  69/77/49  74/80/49  71/79/49
usemtl kenney_prototype_textures/purple/texture_13
f  70/78/50  75/81/50  68/76/50  57/67/50
usemtl kenney_prototype_textures/purple/texture_13
f  62/68/51  63/69/51  76/82/51
usemtl kenney_prototype_textures/purple/texture_13
f  76/82/52  63/69/52  65/71/52
usemtl kenney_prototype_textures/purple/texture_13
f  64/70/53  62/68/53  76/82/53
usemtl kenney_prototype_textures/purple/texture_13
f  76/82/54  65/71/54  68/76/54
usemtl kenney_prototype_textures/purple/texture_13
f  69/77/55  64/70/55  76/82/55
usemtl kenney_prototype_textures/purple/texture_13
f  74/80/56  69/77/56  76/82/56
usemtl kenney_prototype_textures/purple/texture_13
f  76/82/57  68/76/57  75/81/57
usemtl kenney_prototype_textures/purple/texture_13
f  77/83/58  71/79/58  74/80/58  78/84/58
usemtl kenney_prototype_textures/purple/texture_13
f  70/78/59  66/72/59  79/85/59  80/86/59
usemtl kenney_prototype_textures/purple/texture_13
f  81/87/60  50/62/60  52/64/60  73/1/60  82/88/60  83/89/60
usemtl kenney_prototype_textures/purple/texture_13
f  84/22/61  61/23/61  58/10/61  85/8/61
usemtl kenney_prototype_textures/purple/texture_13
f  79/28/62  66/29/62  61/23/62  84/22/62
usemtl kenney_prototype_textures/purple/texture_13
f  86/90/63  87/91/63  88/92/63  89/93/63  90/94/63  91/95/63  92/96/63  82/97/63  73/98/63  51/99/63  45/100/63  33/101/63  26/102/63  16/103/63  19/104/63  1/105/63  7/106/63  11/107/63  15/108/63  27/109/63  32/110/63  44/111/63  55/112/63  72/113/63  93/114/63  94/115/63  95/116/63  96/117/63  97/118/63  98/119/63  99/120/63  100/121/63
usemtl kenney_prototype_textures/purple/texture_13
f  101/122/64  67/75/64  71/79/64  77/83/64
usemtl kenney_prototype_textures/purple/texture_13
f  102/22/65  60/23/65  67/29/65  101/28/65
usemtl kenney_prototype_textures/purple/texture_13
f  103/89/66  93/88/66  72/1/66  54/64/66  53/65/66  104/87/66
usemtl kenney_prototype_textures/purple/texture_13
f  53/65/67  59/10/67  105/8/67  104/87/67
usemtl kenney_prototype_textures/purple/texture_13
f  105/8/68  59/10/68  60/23/68  102/22/68
usemtl kenney_prototype_textures/purple/texture_13
f  50/62/69  81/87/69  85/8/69  58/10/69
usemtl kenney_prototype_textures/purple/texture_13
f  78/84/70  74/80/70  76/82/70
usemtl kenney_prototype_textures/purple/texture_13
f  76/82/71  75/81/71  106/123/71
usemtl kenney_prototype_textures/purple/texture_13
f  106/123/72  75/81/72  70/78/72  80/86/72
usemtl kenney_prototype_textures/purple/texture_13
f  107/124/73  76/82/73  106/123/73
usemtl kenney_prototype_textures/purple/texture_13
f  78/84/74  76/82/74  108/125/74
usemtl kenney_prototype_textures/purple/texture_13
f  108/125/75  76/82/75  109/126/75
usemtl kenney_prototype_textures/purple/texture_13
f  110/127/76  76/82/76  107/124/76
usemtl kenney_prototype_textures/purple/texture_13
f  109/126/77  76/82/77  111/128/77
usemtl kenney_prototype_textures/purple/texture_13
f  112/129/78  76/82/78  110/127/78
usemtl kenney_prototype_textures/purple/texture_13
f  111/128/79  76/82/79  112/129/79
usemtl kenney_prototype_textures/purple/texture_13
f  107/124/80  106/123/80  80/86/80  113/130/80
usemtl kenney_prototype_textures/purple/texture_13
f  114/131/81  77/83/81  78/84/81  108/125/81
usemtl kenney_prototype_textures/purple/texture_13
f  94/11/82  93/88/82  103/89/82
usemtl kenney_prototype_textures/purple/texture_13
f  83/89/83  82/88/83  92/11/83
usemtl kenney_prototype_textures/purple/texture_13
f  115/132/84  101/122/84  77/83/84  114/131/84
usemtl kenney_prototype_textures/purple/texture_13
f  113/130/85  80/86/85  79/85/85  116/133/85
usemtl kenney_prototype_textures/purple/texture_13
f  117/134/86  110/127/86  107/124/86  113/130/86
usemtl kenney_prototype_textures/purple/texture_13
f  114/131/87  108/125/87  109/126/87  118/135/87
usemtl kenney_prototype_textures/purple/texture_13
f  119/136/88  102/137/88  101/122/88  115/132/88
usemtl kenney_prototype_textures/purple/texture_13
f  79/85/89  84/138/89  120/139/89  116/133/89
usemtl kenney_prototype_textures/purple/texture_13
f  121/140/90  112/129/90  110/127/90  117/134/90
usemtl kenney_prototype_textures/purple/texture_13
f  118/135/91  109/126/91  111/128/91  122/141/91
usemtl kenney_prototype_textures/purple/texture_13
f  122/141/92  111/128/92  112/129/92  121/140/92
usemtl kenney_prototype_textures/purple/texture_13
f  120/25/93  84/22/93  85/8/93  123/21/93
usemtl kenney_prototype_textures/purple/texture_13
f  124/21/94  105/8/94  102/22/94  119/25/94
usemtl kenney_prototype_textures/purple/texture_13
f  125/142/95  104/87/95  105/8/95  124/21/95
usemtl kenney_prototype_textures/purple/texture_13
f  123/21/96  85/8/96  81/87/96  126/143/96
usemtl kenney_prototype_textures/purple/texture_13
f  114/131/97  118/135/97  127/144/97  115/132/97
usemtl kenney_prototype_textures/purple/texture_13
f  128/145/98  117/134/98  113/130/98  116/133/98
usemtl kenney_prototype_textures/purple/texture_13
f  129/146/99  95/15/99  94/11/99  103/89/99  104/87/99  125/142/99
usemtl kenney_prototype_textures/purple/texture_13
f  130/147/100  126/143/100  81/87/100  83/89/100  92/11/100  91/15/100  131/148/100
usemtl kenney_prototype_textures/purple/texture_13
f  127/144/101  118/135/101  122/141/101  132/149/101
usemtl kenney_prototype_textures/purple/texture_13
f  133/150/102  121/140/102  117/134/102  128/145/102
usemtl kenney_prototype_textures/purple/texture_13
f  134/151/103  119/136/103  115/132/103  127/144/103
usemtl kenney_prototype_textures/purple/texture_13
f  128/145/104  116/133/104  120/139/104  135/152/104
usemtl kenney_prototype_textures/purple/texture_13
f  131/148/105  91/15/105  90/153/105
usemtl kenney_prototype_textures/purple/texture_13
f  96/154/106  95/15/106  129/146/106
usemtl kenney_prototype_textures/purple/texture_13
f  132/149/107  122/141/107  121/140/107  133/150/107
usemtl kenney_prototype_textures/purple/texture_13
f  136/155/108  124/21/108  119/25/108  134/156/108
usemtl kenney_prototype_textures/purple/texture_13
f  135/24/109  120/50/109  123/39/109  137/20/109
usemtl kenney_prototype_textures/purple/texture_13
f  134/151/110  127/144/110  132/149/110  138/157/110
usemtl kenney_prototype_textures/purple/texture_13
f  139/158/111  133/150/111  128/145/111  135/152/111
usemtl kenney_prototype_textures/purple/texture_13
f  140/159/112  137/155/112  123/21/112  126/143/112  130/147/112  141/160/112
usemtl kenney_prototype_textures/purple/texture_13
f  142/143/113  125/161/113  124/155/113  136/21/113
usemtl kenney_prototype_textures/purple/texture_13
f  142/162/114  143/163/114  97/32/114  96/154/114  129/146/114  125/142/114
usemtl kenney_prototype_textures/purple/texture_13
f  141/164/115  130/165/115  131/166/115  90/33/115  89/167/115  144/168/115
usemtl kenney_prototype_textures/purple/texture_13
f  138/22/116  132/28/116  133/29/116  139/23/116
usemtl kenney_prototype_textures/purple/texture_13
f  98/15/117  97/169/117  143/170/117
usemtl kenney_prototype_textures/purple/texture_13
f  144/168/118  89/167/118  88/171/118
usemtl kenney_prototype_textures/purple/texture_13
f  145/10/119  139/23/119  135/24/119  137/20/119
usemtl kenney_prototype_textures/purple/texture_13
f  136/21/120  134/25/120  138/22/120  146/8/120
usemtl kenney_prototype_textures/purple/texture_13
f  146/8/121  138/22/121  139/23/121  145/10/121
usemtl kenney_prototype_textures/purple/texture_13
f  142/143/122  136/21/122  146/8/122  147/87/122
usemtl kenney_prototype_textures/purple/texture_13
f  145/10/123  137/20/123  140/172/123  148/4/123
usemtl kenney_prototype_textures/purple/texture_13
f  100/7/124  99/11/124  149/89/124
usemtl kenney_prototype_textures/purple/texture_13
f  150/64/125  87/173/125  86/1/125
usemtl kenney_prototype_textures/purple/texture_13
f  148/4/126  140/172/126  141/164/126  144/168/126  88/171/126  87/173/126  150/64/126
usemtl kenney_prototype_textures/purple/texture_13
f  149/89/127  99/11/127  98/15/127  143/170/127  142/143/127  147/87/127
usemtl kenney_prototype_textures/purple/texture_13
f  147/87/128  146/8/128  145/10/128  148/4/128
usemtl kenney_prototype_textures/purple/texture_13
f  147/87/129  148/4/129  150/64/129  86/1/129  100/7/129  149/89/129

